<?xml version="1.0" encoding="utf-8"?>
<!-- Generator: Adobe Illustrator 19.0.0, SVG Export Plug-In . SVG Version: 6.00 Build 0)  -->
<svg version="1.1" id="Layer_1" xmlns="http://www.w3.org/2000/svg" xmlns:xlink="http://www.w3.org/1999/xlink" x="0px" y="0px"
	 viewBox="0 0 24 24" style="enable-background:new 0 0 24 24;" xml:space="preserve">
<style type="text/css">
	.st0{fill:#10B9FF;}
</style>
<g>
	<g>
		<path class="st0" d="M11.6,18l-0.4-0.7C10.9,17,5.3,8.1,7.5,3.8c0.7-1.3,2.1-2.1,4-2.2c0.7,0,3,0.3,4.1,2.4
			c1.5,2.8,0.2,7.3-3.7,13.3L11.6,18z M11.6,2.6C10,2.7,8.9,3.2,8.4,4.3c-1.6,3.1,1.9,9.7,3.2,11.9c4.2-6.7,4.1-10,3.2-11.7
			C13.9,2.8,12.1,2.6,11.6,2.6z"/>
	</g>
	<g>
		<path class="st0" d="M14,10.3H9.9c-0.2,0-0.4-0.1-0.5-0.3C9.2,9.7,9.3,9.5,9.4,9.3l2.7-3.2H9.3V5h4.1c0.2,0,0.4,0.1,0.5,0.3
			c0.1,0.2,0.1,0.5-0.1,0.6l-2.7,3.2H14V10.3z"/>
	</g>
</g>
<rect x="6.1" y="18.8" class="st0" width="4.8" height="2.9"/>
<rect x="12.4" y="18.8" class="st0" width="4.8" height="2.9"/>
<rect x="18.3" y="13.5" class="st0" width="4.8" height="2.9"/>
<rect x="1" y="8.2" class="st0" width="4.8" height="2.9"/>
<rect x="18.3" y="8.2" class="st0" width="4.8" height="2.9"/>
<rect x="1" y="3.1" class="st0" width="4.8" height="2.9"/>
<rect x="18.3" y="3.1" class="st0" width="4.8" height="2.9"/>
</svg>
